<svg xmlns="http://www.w3.org/2000/svg" xmlns:xlink="http://www.w3.org/1999/xlink" width="100" zoomAndPan="magnify" viewBox="0 0 75 74.999997" height="100" preserveAspectRatio="xMidYMid meet" version="1.0"><defs><clipPath id="42aeed58e4"><path d="M 0 1.5 L 75 1.5 L 75 75 L 0 75 Z M 0 1.5 " clip-rule="nonzero"/></clipPath></defs><g clip-path="url(#42aeed58e4)"><path fill="#ffffff" d="M 20.257812 71.519531 C 17.109375 71.519531 15.433594 67.84375 15.433594 65.191406 C 15.433594 64.707031 15.519531 64.171875 15.65625 63.613281 L 23.34375 63.648438 C 23.558594 64.726562 24.640625 67.699219 30.03125 67.699219 L 68.683594 67.699219 L 68.683594 67.214844 L 30.03125 67.214844 C 25.066406 67.214844 24.042969 64.660156 23.828125 63.648438 L 64.679688 63.839844 L 64.683594 63.355469 L 15.789062 63.125 C 16.503906 60.703125 18.050781 58.097656 18.070312 58.0625 L 17.726562 57.734375 C 16.242188 58.714844 14.75 59.617188 13.015625 60.070312 L 13.015625 13.542969 L 12.527344 13.542969 L 12.527344 50.867188 C 11.660156 50.71875 8.8125 49.824219 8.8125 44.640625 L 8.8125 5.988281 L 8.328125 5.988281 L 8.328125 44.640625 C 8.328125 50.308594 11.613281 51.214844 12.527344 51.359375 L 12.527344 60.183594 C 11.941406 60.304688 11.324219 60.371094 10.671875 60.371094 C 8.03125 60.371094 4.378906 58.6875 4.378906 55.523438 L 4.378906 1.5 L 3.890625 1.5 L 3.890625 55.523438 C 3.890625 58.714844 7.398438 60.859375 10.671875 60.859375 C 11.324219 60.859375 11.941406 60.792969 12.527344 60.679688 L 12.527344 63.597656 L 12.550781 63.597656 C 12.25 63.753906 11.960938 63.90625 11.675781 64.054688 C 10.78125 64.507812 9.878906 64.933594 8.917969 65.238281 C 8.351562 65.417969 7.792969 65.507812 7.246094 65.507812 C 6.425781 65.507812 5.625 65.304688 4.839844 64.878906 C 3.863281 64.351562 2.996094 63.675781 2.140625 62.980469 C 1.855469 62.746094 1.574219 62.503906 1.289062 62.265625 C 1.460938 62.632812 1.652344 62.988281 1.835938 63.347656 C 2.289062 64.234375 2.710938 65.136719 3.011719 66.089844 C 3.457031 67.496094 3.371094 68.847656 2.667969 70.15625 C 2.109375 71.199219 1.378906 72.121094 0.632812 73.027344 C 0.4375 73.261719 0.238281 73.496094 0.0429688 73.726562 C 0.046875 73.730469 0.0507812 73.738281 0.0546875 73.742188 C 0.464844 73.527344 0.875 73.308594 1.285156 73.101562 C 2.15625 72.660156 3.039062 72.253906 3.972656 71.972656 C 4.507812 71.8125 5.035156 71.730469 5.554688 71.730469 C 6.320312 71.730469 7.066406 71.90625 7.800781 72.28125 C 8.898438 72.84375 9.855469 73.601562 10.800781 74.378906 C 11.039062 74.578125 11.273438 74.777344 11.539062 75.003906 C 11.304688 74.554688 11.089844 74.144531 10.878906 73.730469 C 10.4375 72.859375 10.03125 71.976562 9.75 71.042969 C 9.347656 69.707031 9.433594 68.421875 10.078125 67.175781 C 10.523438 66.320312 11.085938 65.546875 11.6875 64.796875 C 12.003906 64.402344 12.335938 64.007812 12.675781 63.597656 L 15.160156 63.609375 C 15.027344 64.164062 14.949219 64.699219 14.949219 65.191406 C 14.949219 68.480469 17.082031 72.003906 20.257812 72.003906 L 74.957031 72.003906 L 74.957031 71.519531 Z M 9.648438 66.953125 C 8.960938 68.277344 8.839844 69.703125 9.285156 71.183594 C 9.496094 71.886719 9.777344 72.558594 10.0625 73.171875 C 9.417969 72.675781 8.75 72.222656 8.023438 71.847656 C 7.234375 71.449219 6.402344 71.242188 5.554688 71.242188 C 4.996094 71.242188 4.417969 71.332031 3.835938 71.507812 C 3.128906 71.71875 2.457031 72 1.847656 72.285156 C 2.296875 71.695312 2.730469 71.070312 3.09375 70.386719 C 3.84375 68.996094 3.96875 67.5 3.476562 65.945312 C 3.265625 65.28125 3 64.648438 2.726562 64.066406 C 3.300781 64.503906 3.925781 64.9375 4.609375 65.308594 C 5.453125 65.761719 6.339844 65.996094 7.246094 65.996094 C 7.835938 65.996094 8.449219 65.894531 9.0625 65.699219 C 9.730469 65.492188 10.363281 65.226562 10.949219 64.953125 C 10.503906 65.53125 10.039062 66.199219 9.648438 66.953125 Z M 13.015625 63.113281 L 13.015625 60.574219 C 14.539062 60.195312 15.875 59.488281 17.171875 58.671875 C 16.625 59.6875 15.757812 61.441406 15.285156 63.125 Z M 13.015625 63.113281 " fill-opacity="1" fill-rule="nonzero"/></g></svg>