<svg xmlns="http://www.w3.org/2000/svg" xmlns:xlink="http://www.w3.org/1999/xlink" width="48" zoomAndPan="magnify" viewBox="0 0 36 36.000001" height="48" preserveAspectRatio="xMidYMid meet" version="1.0"><defs><g/></defs><path stroke-linecap="butt" transform="matrix(0, -0.72973, 0.72973, 0, 9.384628, 33.271116)" fill="none" stroke-linejoin="miter" d="M 2.999857 1.999538 L 32.200523 1.999538 " stroke="#ffffff" stroke-width="4" stroke-opacity="1" stroke-miterlimit="4"/><path stroke-linecap="round" transform="matrix(0, -0.72973, 0.72973, 0, 9.384628, 33.271116)" fill="none" stroke-linejoin="round" d="M 1.998845 -4.001186 L 1.998845 8.000261 " stroke="#ffffff" stroke-width="4" stroke-opacity="1" stroke-miterlimit="4"/><path stroke-linecap="round" transform="matrix(0, -0.72973, 0.72973, 0, 9.384628, 33.271116)" fill-opacity="1" fill="#ffffff" fill-rule="nonzero" stroke-linejoin="round" d="M 33.201536 -4.001186 L 41.198932 1.999538 L 33.201536 8.000261 Z M 33.201536 -4.001186 " stroke="#ffffff" stroke-width="4" stroke-opacity="1" stroke-miterlimit="4"/><g fill="#ffffff" fill-opacity="1"><g transform="translate(18.154497, 15.324326)"><g><path d="M 1.03125 0 C 0.664062 0 0.484375 -0.140625 0.484375 -0.421875 C 0.484375 -0.503906 0.503906 -0.601562 0.546875 -0.71875 L 5.453125 -13.15625 C 5.578125 -13.476562 5.816406 -13.640625 6.171875 -13.640625 L 8.421875 -13.640625 C 8.773438 -13.640625 9.015625 -13.476562 9.140625 -13.15625 L 14.046875 -0.71875 C 14.085938 -0.601562 14.109375 -0.503906 14.109375 -0.421875 C 14.109375 -0.140625 13.925781 0 13.5625 0 L 11.765625 0 C 11.398438 0 11.160156 -0.160156 11.046875 -0.484375 L 10.328125 -2.40625 C 10.265625 -2.582031 10.140625 -2.671875 9.953125 -2.671875 L 4.53125 -2.671875 C 4.351562 -2.671875 4.226562 -2.582031 4.15625 -2.40625 L 3.4375 -0.484375 C 3.320312 -0.160156 3.082031 0 2.71875 0 Z M 5.296875 -5.421875 C 5.273438 -5.390625 5.265625 -5.347656 5.265625 -5.296875 C 5.265625 -5.148438 5.359375 -5.078125 5.546875 -5.078125 L 8.96875 -5.078125 C 9.21875 -5.078125 9.300781 -5.191406 9.21875 -5.421875 L 7.46875 -10.078125 C 7.425781 -10.203125 7.351562 -10.265625 7.25 -10.265625 C 7.164062 -10.265625 7.097656 -10.203125 7.046875 -10.078125 Z M 5.296875 -5.421875 "/></g></g></g><g fill="#ffffff" fill-opacity="1"><g transform="translate(18.713196, 32.837839)"><g><path d="M 3.515625 -4.953125 C 3.554688 -5.023438 3.578125 -5.09375 3.578125 -5.15625 C 3.578125 -5.257812 3.519531 -5.335938 3.40625 -5.390625 C 2.625 -5.765625 2.015625 -6.285156 1.578125 -6.953125 C 1.148438 -7.628906 0.9375 -8.40625 0.9375 -9.28125 C 0.9375 -10.125 1.132812 -10.875 1.53125 -11.53125 C 1.9375 -12.1875 2.523438 -12.695312 3.296875 -13.0625 C 4.078125 -13.425781 5.015625 -13.609375 6.109375 -13.609375 L 11.453125 -13.609375 C 11.648438 -13.609375 11.800781 -13.550781 11.90625 -13.4375 C 12.019531 -13.332031 12.078125 -13.1875 12.078125 -13 L 12.078125 -0.625 C 12.078125 -0.425781 12.019531 -0.269531 11.90625 -0.15625 C 11.800781 -0.0507812 11.648438 0 11.453125 0 L 9.796875 0 C 9.609375 0 9.457031 -0.0507812 9.34375 -0.15625 C 9.238281 -0.269531 9.1875 -0.425781 9.1875 -0.625 L 9.1875 -4.5 C 9.1875 -4.707031 9.082031 -4.8125 8.875 -4.8125 L 7 -4.8125 C 6.84375 -4.8125 6.722656 -4.742188 6.640625 -4.609375 L 3.71875 -0.390625 C 3.550781 -0.128906 3.296875 0 2.953125 0 L 1.015625 0 C 0.847656 0 0.71875 -0.0351562 0.625 -0.109375 C 0.53125 -0.179688 0.484375 -0.273438 0.484375 -0.390625 C 0.484375 -0.503906 0.53125 -0.628906 0.625 -0.765625 Z M 3.859375 -9.203125 C 3.859375 -8.585938 4.0625 -8.101562 4.46875 -7.75 C 4.875 -7.40625 5.445312 -7.234375 6.1875 -7.234375 L 8.875 -7.234375 C 9.082031 -7.234375 9.1875 -7.335938 9.1875 -7.546875 L 9.1875 -10.828125 C 9.1875 -11.035156 9.082031 -11.140625 8.875 -11.140625 L 6.1875 -11.140625 C 5.445312 -11.140625 4.875 -10.96875 4.46875 -10.625 C 4.0625 -10.28125 3.859375 -9.804688 3.859375 -9.203125 Z M 3.859375 -9.203125 "/></g></g></g></svg>